Simulation
nRows=48
nColumns=15
endheader
time  TH_x TH_y TH_z SC_y  SC_z  SC_x  AC_y  AC_z  AC_x  GH_y  GH_z  GH_yy  EL_x  PS_y
5.745  0.000000  0.000000  0.000000  -41.61107726650006  6.693246898681658  2.9117659234649214  51.89483353715281  14.405779581804625  10.053272747386371  20.777521100662923  69.69187218045877  -33.93626173237044  18.59043853003945  120.000000
5.80245  0.000000  0.000000  0.000000  -40.86224163973369  5.977376727984755  1.2486338250714513  51.64562001727511  13.816544304030018  9.802439525267333  20.83050642778309  67.99378225574455  -33.80716604038217  18.88818106122525  120.000000
5.8599  0.000000  0.000000  0.000000  -40.00466496062232  5.188560765877854  -0.9109201705828756  51.1761732587974  13.347630680912784  9.755107700652827  20.953638314870073  65.58897462142723  -33.53967495910148  19.287864076197003  120.000000
5.91735  0.000000  0.000000  0.000000  -39.07445020775451  4.362622151138592  -3.445947652900448  50.44728394303731  13.040943680109184  9.88986510626876  21.15574065645127  62.49455263988528  -33.16161238192227  19.697845267466146  120.000000
5.9748  0.000000  0.000000  0.000000  -38.096088903410674  3.535022390519588  -6.224605107954199  49.45590417652119  12.934260508096727  10.174181577188524  21.45380814435116  58.76884677304533  -32.70311260278037  20.0066768866947  120.000000
6.03225  0.000000  0.000000  0.000000  -37.08739642567938  2.7373724502567782  -9.109651853772045  48.24496586881274  13.058245599451027  10.575724237244836  21.88830710130241  54.509189440796  -32.20726147375822  20.118985769036538  120.000000
6.089700000000001  0.000000  0.000000  0.000000  -36.07643890727136  1.9975438409709312  -11.965565207665392  46.89159463639082  13.43169634716248  11.068531888458255  22.525755174782347  49.84729985754282  -31.736158044859202  19.98361693245785  120.000000
6.14715  0.000000  0.000000  0.000000  -35.1191072632179  1.3436798790858255  -14.66923574711399  45.488811231338225  14.053933615905063  11.634251461810821  23.461989623252226  44.94434049509644  -31.38084027304191  19.60243129837059  120.000000
6.2046  0.000000  0.000000  0.000000  -34.289702629859015  0.8042611926863267  -17.11977147888982  44.1310881337408  14.900523505112506  12.258724876149941  24.828553888891054  39.982825971466426  -31.27196204499677  19.01522411887824  120.000000
6.26205  0.000000  0.000000  0.000000  -33.66066159951241  0.4012046010962508  -19.24301285115007  42.895570222097454  15.920535295664777  12.933514744125585  26.792560592879582  35.15018754724805  -31.581465885021203  18.282426909709002  120.000000
6.3195  0.000000  0.000000  0.000000  -33.28012346795676  0.14795291688233073  -20.996352592896983  41.832945301752034  17.04320993824958  13.648055326977891  29.543328935698277  30.619920881866417  -32.508266169157366  17.478334096258845  120.000000
6.37695  0.000000  0.000000  0.000000  -33.15115313129852  0.04376161129029846  -22.370105280680693  40.97336816905301  18.193319156229297  14.376277766201893  33.266420788992235  26.53435767410389  -34.25181882300718  16.686544249064994  120.000000
6.4344  0.000000  0.000000  0.000000  -33.231142606853645  0.06868476603272612  -23.378877569412076  40.325890175794164  19.302250605635724  15.082601795164924  38.10058378566724  22.988339872957702  -36.96940482013447  15.992452674022402  120.000000
6.49185  0.000000  0.000000  0.000000  -33.45029092637703  0.1873524926972016  -24.051883515812705  39.87826878094603  20.321103397745244  15.72896835841892  44.076008450896445  20.02793604151756  -40.72153638539688  15.469759547607511  120.000000
6.549300000000001  0.000000  0.000000  0.000000  -33.736995895889464  0.3629871602891335  -24.429800890323623  39.60561229888952  21.222684994798286  16.278775982392684  51.061144942717235  17.657936486362978  -45.42429164988088  15.166352057227456  120.000000
6.60675  0.000000  0.000000  0.000000  -34.03965360549837  0.5644307094912475  -24.561138244690877  39.47020477326849  21.990844089640515  16.70916960757384  58.74686383770326  15.843721433745907  -50.83162657778745  15.095949722916506  120.000000
6.6642  0.000000  0.000000  0.000000  -34.334743636874876  0.7685130899913728  -24.493652466642416  39.429907179312266  22.616327364933948  17.009207514585054  66.69272904555201  14.517006604150584  -56.57604230768241  15.24216155753329  120.000000
6.72165  0.000000  0.000000  0.000000  -34.6162326012744  0.9633407442416266  -24.266806544321952  39.45014612149092  23.096348477259507  17.172022486017116  74.4340806429715  13.584149276976923  -62.26182786582145  15.56744843767387  120.000000
6.7791  0.000000  0.000000  0.000000  -34.8842407022278  1.1428059385150604  -23.913762635874605  39.50211609207574  23.431964117499113  17.20044714151863  81.60149464199479  12.940125206178553  -67.57010383690783  16.015333374091863  120.000000
6.83655  0.000000  0.000000  0.000000  -35.134324132178236  1.30337693021667  -23.46523655106293  39.56702925013416  23.628327075426803  17.10575005479078  87.99547716277893  12.486477191328962  -72.32513756362567  16.510145959663767  120.000000
6.894  0.000000  0.000000  0.000000  -35.35339691135941  1.443251552041686  -22.94797708997772  39.63982463788125  23.695363597451713  16.901871910573703  93.58514364937108  12.144205602310505  -76.49558904729365  16.96438217611597  120.000000
6.95145  0.000000  0.000000  0.000000  -35.52467518495288  1.5619174311531012  -22.38307729406221  39.72514344165233  23.64702410084996  16.60380502647806  98.44996462947728  11.859466377719487  -80.14742977954009  17.297534142665896  120.000000
7.008900000000001  0.000000  0.000000  0.000000  -35.637763478323045  1.6599057963062172  -21.785017623966297  39.82894254034159  23.499671517167403  16.228121097195572  102.70851533903972  11.602111065116288  -83.38553758952831  17.463060950593107  120.000000
7.06635  0.000000  0.000000  0.000000  -35.6972491255138  1.7383526770294693  -21.161908899522217  39.951026969881454  23.270924905533118  15.792775370276582  106.46317004266803  11.35944280581669  -86.30710333852751  17.46973886825517  120.000000
7.1238  0.000000  0.000000  0.000000  -35.72261584172567  1.7994924363748563  -20.517194702670366  40.08380732145854  22.979087435839986  15.315249389337508  109.77624420398071  11.129191169109339  -88.97878260824261  17.378697275125532  120.000000
7.18125  0.000000  0.000000  0.000000  -35.73784558657611  1.8484014552992072  -19.852419474636744  40.219640394559654  22.643800975498127  14.808668684965863  112.67000259654289  10.914797423897442  -91.43010361064734  17.275991666598156  120.000000
7.2387  0.000000  0.000000  0.000000  -35.76228356661376  1.891220166469916  -19.169039474432054  40.356062287030376  22.284411426856103  14.281410262044204  115.13922724958603  10.720576168793869  -93.65661960892591  17.236927036029797  120.000000
7.29615  0.000000  0.000000  0.000000  -35.806101278936616  1.9315500029218517  -18.468842613560646  40.49233372887645  21.9142187968387  13.742730258863235  117.18649531080253  10.544422538981985  -95.64570932283115  17.298235589244875  120.000000
7.3536  0.000000  0.000000  0.000000  -35.86775040064441  1.9707114557384708  -17.75475517779261  40.62876775321659  21.539241518301687  13.204015054868881  118.84795658365832  10.376571416058686  -97.40024839694557  17.45287006741699  120.000000
7.41105  0.000000  0.000000  0.000000  -35.93737389141554  2.009114713416489  -17.031829987069152  40.77069626182643  21.162671331016625  12.673848097257126  120.17766888868456  10.20572139025797  -98.93185739020264  17.66692852527592  120.000000
7.468500000000001  0.000000  0.000000  0.000000  -36.00043707639023  2.0482980716684747  -16.307688367897097  40.927012309196826  20.786980564241585  12.15574910597637  121.2408320616992  10.022100462939145  -100.26377626599312  17.90238662063535  120.000000
7.52595  0.000000  0.000000  0.000000  -36.04733894392973  2.0888105471327623  -15.590602065505395  41.10152275203923  20.412614419414055  11.652113878455193  122.11018411936264  9.818277840814659  -101.43575640616493  18.132922917533545  120.000000
7.5834  0.000000  0.000000  0.000000  -36.07676359242944  2.1292532396885866  -14.887871650958708  41.290994128176735  20.038790337018817  11.166028915842043  122.85597871557135  9.591205207660764  -102.4978619145384  18.349443006837223  120.000000
7.64085  0.000000  0.000000  0.000000  -36.09363208107393  2.1677245276127715  -14.205420779284367  41.48836514586372  19.66563436338589  10.700322774333802  123.53899623590218  9.342521377773766  -103.50145740068122  18.555587363320083  120.000000
7.6983  0.000000  0.000000  0.000000  -36.105687754046855  2.202684313153948  -13.547840955766445  41.685988563789735  19.29554345213761  10.256496497807015  124.20903533475135  9.076992823493061  -104.49352727971639  18.758879954583747  120.000000
7.75575  0.000000  0.000000  0.000000  -36.12022981053328  2.2326713041643136  -12.918706692616789  41.878534917537316  18.93292743825724  9.83459571338054  124.90506433895139  8.801664892356833  -105.51258053054646  18.96410417345106  120.000000
7.8132  0.000000  0.000000  0.000000  -36.142155958992284  2.2550544045805196  -12.320920056638013  42.06487927939285  18.583210697542125  9.433462271657405  125.65087290402711  8.525968896757153  -106.58160336819138  19.17083272211971  120.000000
7.87065  0.000000  0.000000  0.000000  -36.17400772797621  2.266276014288648  -11.756775026017639  42.247610891112615  18.251640273023284  9.05139333493071  126.45038339197117  8.26090052843217  -107.70153329576316  19.375393216760077  120.000000
7.928100000000001  0.000000  0.000000  0.000000  -36.21754964474084  2.2609039558026898  -11.227599248360441  42.42882314823469  17.941987508664894  8.687433792554204  127.29154343278246  8.015697416168498  -108.85418666295807  19.574635868368254  120.000000
7.98555  0.000000  0.000000  0.000000  -36.27436043782353  2.232692988864826  -10.73350713976901  42.60683292501824  17.655888234738452  8.341697860509715  128.1544194042907  7.794606715557178  -110.00990156104946  19.77057522883288  120.000000
8.043  0.000000  0.000000  0.000000  -36.344431478063925  2.1785387086985195  -10.274075268593764  42.77627023151538  17.3939200033776  8.013084232739159  129.01461326260667  7.595263572121016  -111.1324432189372  19.97298937725145  120.000000
8.10045  0.000000  0.000000  0.000000  -36.4240689111413  2.101868595600387  -9.849896108266924  42.92820999222319  17.156597386653928  7.697113339386071  129.85169011211934  7.407423810822387  -112.19100097875027  20.19639953553368  120.000000
8.1579  0.000000  0.000000  0.000000  -36.5059622130755  2.012368095278788  -9.463813844953098  43.04759856638455  16.94387626491614  7.38786338840734  130.65809936846202  7.212837711576019  -113.17481913001691  20.4504613275133  120.000000
8.21535  0.000000  0.000000  0.000000  -36.57946920967159  1.9224880720505635  -9.12257393585751  43.111820395538544  16.75317697486523  7.083984273977647  131.43075197675483  6.989574950856658  -114.09104972376623  20.72724522245414  120.000000
8.2728  0.000000  0.000000  0.000000  -36.6315033141834  1.8474025174955186  -8.84014748038707  43.098039737091476  16.57794451108849  6.790294302355956  132.12960269243183  6.721155126746175  -114.92631760251824  20.993324702320727  120.000000
8.33025  0.000000  0.000000  0.000000  -36.64774959525333  1.8033575448720935  -8.63934194700799  42.99016488113751  16.410841108621774  6.5145088565262155  132.6248869046677  6.401517148602845  -115.5890202672727  21.195060168419253  120.000000
8.3877  0.000000  0.000000  0.000000  -36.614983367708064  1.8011763343552492  -8.547921547013244  42.779895425065206  16.246789128307586  6.268928172714118  132.65406942548339  6.036715310848962  -115.85241816277048  21.278837592028466  120.000000
8.44515  0.000000  0.000000  0.000000  -36.51983604988864  1.839022995003977  -8.59276981601111  42.471327716316495  16.08380159033707  6.070715702812453  131.76943009939703  5.646297005015244  -115.28504801109194  21.215757180760523  120.000000
